<?xml version="1.0" encoding="utf-8"?>
<!-- Generator: Adobe Illustrator 24.0.3, SVG Export Plug-In . SVG Version: 6.00 Build 0)  -->
<svg version="1.1" id="logo" xmlns="http://www.w3.org/2000/svg" xmlns:xlink="http://www.w3.org/1999/xlink" x="0px" y="0px"
	 viewBox="0 0 359 104.8" style="enable-background:new 0 0 359 104.8;" xml:space="preserve">
<g>
	<g>
		<g id="XMLID_861_">
			<g id="XMLID_864_">
				<path id="XMLID_878_" style="fill:#19181C;" d="M190.6,36c-0.2,5.9-0.4,8.1-1.8,9.5c-1.9,1.7-3.4,2.5-13.3,2.5
					c-12.6,0-15.5-0.6-17.6-2.5c-1.8-1.7-2.6-5-2.6-12.4c0-8.5,0.6-11.7,2.8-13.4c1.5-1.1,3.2-1.9,8-2.2c2-0.1,6.2-0.2,8.7-0.2
					c9.8,0,11.9,1,13.9,3.1c1.4,1.4,1.5,3.5,1.6,8.7l-3,0l-3,0c-0.1-3.3,0.4-4.8-1.2-5.3c-1.3-0.4-3-0.7-8.6-0.7
					c-8.4,0-11.2,0.4-12,1.1c-0.9,0.8-1.2,3.8-1.1,7.3c0,2.5,0.4,7.4,0.6,8.9c0.3,2.2,7.6,2,11.5,2c3.2,0,8.6-0.1,9.9-0.6
					c1-0.4,1.3-1.9,1.3-5.7l2.8,0L190.6,36z"/>
				<path id="XMLID_876_" style="fill:#19181C;" d="M227.8,17.4l0,5.8l-14.1,0v24.8l-6.2,0l0-24.8h-14.2v-5.8H227.8z"/>
				<path id="XMLID_874_" style="fill:#19181C;" d="M237.9,17.4V48h-6.1V17.4H237.9z"/>
				<path id="XMLID_872_" style="fill:#19181C;" d="M247,17.4l14,24.7l13.6-24.7l6.9,0L264.8,48h-7.5l-17.2-30.6L247,17.4z"/>
				<path id="XMLID_869_" style="fill:#19181C;" d="M318.3,19.8c1.3,1.2,1.8,2.8,2.1,6c0.2,1.6,0.3,4.6,0.3,7
					c0,7.5-0.6,10.9-2.3,12.8c-1.8,1.9-5.1,2.5-14.4,2.5c-8.1,0-13.2-0.2-15.5-0.7c-2.4-0.5-4.4-2.5-4.9-4.9c-0.5-2-0.7-4.9-0.7-9.8
					c0-8.2,0.7-11.4,2.9-13.2c1.5-1.1,3.1-1.6,7.2-1.8c1.8-0.1,7-0.2,9.7-0.2C313.1,17.3,316.3,17.9,318.3,19.8z M290.3,24.1
					c-0.9,0.8-1.3,3.3-1.3,8.2c0,5.7,0.3,7.9,1.1,8.8c0.7,0.7,1.8,1,4.7,1.2c1.4,0.1,5.8,0.2,7.5,0.2c3.9,0,7.5-0.2,9.3-0.5
					c1.5-0.3,2.4-1.1,2.7-2.6c0.2-1.4,0.4-4.1,0.4-6.5c0-2.9-0.2-5.9-0.4-7.1c-0.2-1.5-1.2-2.2-3-2.5c-2-0.3-4-0.4-10.8-0.4
					C294,22.8,291.3,23.2,290.3,24.1z"/>
				<path id="XMLID_867_" style="fill:#19181C;" d="M331.1,36.9l0,1.3c0,2.6-0.1,3.5,0.9,3.9c1.2,0.5,6.2,0.5,10,0.5
					c4,0,7,0.1,8.7-0.5c0.6-0.2,1.8-0.9,1.9-2.5c0.1-1.2,0.2-3.2-1.1-3.7c-1.5-0.6-0.6-0.3-15.5-0.3c-8,0-11.1-2.7-11.1-9.6
					c0-2.7,0.9-4.7,2.4-6c1.5-1.3,3.1-1.8,6.6-2.2c2.2-0.3,6.3-0.5,9.2-0.5c6.8,0,10.1,0.8,12.2,2.5c1.7,1.4,2.5,2.8,2.5,8.2h-6.1
					l0-0.7c0-3-0.2-3.6-2.2-4.1c-1.3-0.3-3.6-0.6-6.5-0.5c-5.3,0.1-11.8,0.1-11.7,3c0.1,2.1-0.1,2.7,1.2,3.3
					c0.9,0.4,3.2,0.7,6.7,0.7c2.2,0,2.2,0,10.3,0c4.4,0,6.8,1.2,8.3,3.8c0.9,1.3,0.9,3.2,0.9,5.5c0,3.8-1.2,5.9-3.5,7.3
					c-2.2,1.3-6.7,1.8-15.8,1.8c-6.9,0-9.5-0.6-11.4-1.7c-2.1-1.3-2.9-2.8-2.9-6.6c0-0.1-0.1-2.6,0-3.1L331.1,36.9z"/>
				<path id="XMLID_865_" style="fill:#19181C;" d="M147,48.3l-14.1-24.5l-14,24.4l-7,0L129,17.5l7.6,0L154,48.3L147,48.3z"/>
			</g>

				<ellipse id="XMLID_863_" transform="matrix(1 -5.679050e-03 5.679050e-03 1 -0.2194 0.7573)" style="fill:#EE3537;" cx="133.2" cy="39" rx="4.1" ry="4.1"/>
			<polygon id="XMLID_862_" style="fill:#0E0B13;" points="359,64.7 110.6,64.7 110.6,63 359,63 			"/>
		</g>
		<g id="XMLID_857_">
			<path id="XMLID_860_" style="fill:#F2A325;" d="M24.8,75.2c-5.2-2.9,3.4-22.8,25.2-43.1C85.7-0.8,95.6,9.7,98,4.4
				c2.4-5.4-11.6-5.3-19.7-2.6C48.4,11.9,26.2,40,22.8,44.1C6.6,63.8,8.9,73.6,9.9,76.5c1.2,3.4,6.6,5.7,9.3,6.3
				C33,86,32.5,79.5,24.8,75.2z"/>
			<path id="XMLID_859_" style="fill:#F2A325;" d="M1.5,94.3c2.4-1.6,27.9,6.4,66.8-40.2c12.3-14.7,13.6-16.7,15.2-18
				c0.9-0.7,4.4-1.2,6.3,0.4c1.7,1.5,1.8,5.4,1.9,6.3c3.1,20.1,4.7,25.8,4.7,25.8c0.1,8.1-12.1,7.8-12.9,5.1
				c-0.6-1.9,0.8-19.7,0.8-19.7S47.9,100.2,8.4,100c-1.9,0-6.7,0.2-8.1-2C-0.3,97.1,0.1,95.3,1.5,94.3z"/>
			<path id="XMLID_858_" style="fill:#EE3537;" d="M83.5,27.7c1.3,1.6,4.4,3.7,7.3,2.3c2.6-1.2,4.7-6,5.3-7.1
				c0.9-1.7-0.3-4.1-2.3-5.8c-2.8-2.3-8-0.4-9.7,1.2c-1.5,1.5-1.9,3.2-2,3.6C82,22.4,81.5,25.3,83.5,27.7z"/>
		</g>
		<g id="XMLID_771_">
			<path id="XMLID_855_" style="fill:#767A7E;" d="M111.1,70.1h6.9V71h-5.9v2.1h5.7v0.8h-5.7v2.4h6v0.8h-6.9V70.1z"/>
			<path id="XMLID_853_" style="fill:#767A7E;" d="M119.4,70.1v7h-0.8v-7H119.4z"/>
			<path id="XMLID_851_" style="fill:#767A7E;" d="M124.4,71.1v1.2h3.4V73h-3.4v2.1c0,0.9,0,1,0.2,1.2c0.2,0.2,0.5,0.3,1.3,0.3
				c0.7,0,0.9-0.1,1.1-0.3c0.1-0.2,0.1-0.4,0.1-1V75h0.8v0.3c0,0.8-0.1,1.1-0.3,1.4c-0.3,0.4-0.8,0.6-1.8,0.6c-1,0-1.6-0.2-1.9-0.5
				c-0.2-0.3-0.3-0.6-0.3-1.4V73h-1.2v-0.7h1.2v-1.2H124.4z"/>
			<path id="XMLID_848_" style="fill:#767A7E;" d="M128.6,73.8v-0.2c0-1,0.6-1.3,2.7-1.3c1.7,0,2.2,0.1,2.6,0.5
				c0.3,0.3,0.4,0.7,0.4,1.8v2.6h-0.8l0-0.6h0c-0.4,0.5-0.7,0.6-2.2,0.6c-1.7,0-2.2-0.1-2.6-0.3c-0.3-0.3-0.4-0.5-0.4-1.1
				c0-0.8,0.2-1.1,0.7-1.3c0.3-0.1,0.8-0.2,1.8-0.2c2,0,2.3,0.1,2.7,0.5h0.1v-0.5c0-0.5-0.1-0.7-0.2-0.9c-0.3-0.3-0.7-0.4-2-0.4
				c-1.7,0-2,0.1-2,0.8v0.1H128.6z M129.5,75.1c-0.2,0.1-0.3,0.3-0.3,0.7c0,0.4,0.1,0.5,0.4,0.7c0.2,0.1,0.7,0.1,1.9,0.1
				c1.6,0,2-0.2,2-0.8c0-0.6-0.5-0.8-2.2-0.8C130.1,75,129.8,75,129.5,75.1z"/>
			<path id="XMLID_846_" style="fill:#767A7E;" d="M136,70.1v7h-0.8v-7H136z"/>
			<path id="XMLID_843_" style="fill:#767A7E;" d="M143.1,75.7c0,1.2-0.7,1.6-2.7,1.6c-1.7,0-2.4-0.1-2.9-0.5c-0.5-0.4-0.7-1-0.7-2
				c0-1.2,0.3-1.9,0.9-2.2c0.4-0.2,1-0.3,2.1-0.3c1.7,0,2.3,0.1,2.7,0.6c0.4,0.4,0.5,0.9,0.5,2h-5.4c0,0.6,0.1,1,0.4,1.3
				c0.3,0.3,0.8,0.4,2.3,0.4c1.1,0,1.5-0.1,1.8-0.4c0.1-0.1,0.1-0.2,0.2-0.5H143.1z M142.2,74.2c0-1.1-0.5-1.3-2.4-1.3
				c-1.7,0-2.1,0.3-2.2,1.3H142.2z"/>
			<path id="XMLID_841_" style="fill:#767A7E;" d="M144.6,72.3V73h0.1c0.3-0.6,0.9-0.8,2.5-0.8c1.4,0,2,0.1,2.4,0.5
				c0.3,0.3,0.4,0.7,0.4,1.7v2.8h-0.8v-2.4c0-0.9-0.1-1.2-0.3-1.4c-0.3-0.3-0.7-0.4-1.8-0.4c-1.2,0-1.8,0.2-2.1,0.6
				c-0.2,0.3-0.3,0.5-0.3,1.4v2.3h-0.8v-4.9H144.6z"/>
			<path id="XMLID_839_" style="fill:#767A7E;" d="M152.2,71.1v1.2h3.4V73h-3.4v2.1c0,0.9,0,1,0.2,1.2c0.2,0.2,0.5,0.3,1.3,0.3
				c0.7,0,0.9-0.1,1.1-0.3c0.1-0.2,0.1-0.4,0.1-1V75h0.8v0.3c0,0.8-0.1,1.1-0.3,1.4c-0.3,0.4-0.8,0.6-1.8,0.6c-1,0-1.6-0.2-1.9-0.5
				c-0.2-0.3-0.3-0.6-0.3-1.4V73h-1.2v-0.7h1.2v-1.2H152.2z"/>
			<path id="XMLID_836_" style="fill:#767A7E;" d="M161.8,72.6c0.6,0.4,0.8,1,0.8,2.2c0,1.2-0.3,1.8-0.9,2.2c-0.4,0.2-1,0.3-2.2,0.3
				c-1.4,0-2-0.1-2.5-0.3c-0.6-0.4-0.9-1-0.9-2.2c0-1.2,0.3-1.9,0.9-2.2c0.4-0.2,0.9-0.3,2.1-0.3C160.8,72.2,161.4,72.3,161.8,72.6z
				 M157,74.8c0,1,0.2,1.4,0.8,1.6c0.3,0.1,0.8,0.2,1.7,0.2c1.1,0,1.6-0.1,1.9-0.3c0.3-0.3,0.4-0.7,0.4-1.5c0-1-0.2-1.4-0.7-1.6
				c-0.3-0.1-0.8-0.2-1.8-0.2C157.4,72.9,157,73.2,157,74.8z"/>
			<path id="XMLID_834_" style="fill:#767A7E;" d="M166.8,70.1V73h0.1c0.3-0.6,0.9-0.8,2.5-0.8c1.3,0,1.9,0.1,2.3,0.5
				c0.3,0.3,0.4,0.7,0.4,1.9v2.5h-0.8v-2.3c0-1,0-1.3-0.3-1.6c-0.3-0.3-0.7-0.4-1.8-0.4c-1.2,0-1.8,0.2-2.1,0.5
				c-0.3,0.3-0.3,0.5-0.3,1.4v2.3H166v-7H166.8z"/>
			<path id="XMLID_832_" style="fill:#767A7E;" d="M173.6,72.3v2.5c0,0.9,0.1,1.2,0.4,1.5c0.3,0.2,0.7,0.3,1.6,0.3
				c1.2,0,1.8-0.2,2.1-0.6c0.2-0.2,0.3-0.6,0.3-1.3v-2.4h0.8v4.9H178v-0.7h0c-0.4,0.6-0.9,0.8-2.4,0.8c-1.2,0-1.8-0.1-2.2-0.5
				c-0.3-0.3-0.5-0.8-0.5-1.8v-2.7H173.6z"/>
			<path id="XMLID_830_" style="fill:#767A7E;" d="M180.4,72.3v0.6c0.5-0.6,0.8-0.7,2-0.7c1.6,0,2.1,0.2,2.5,0.9
				c0.3-0.6,0.9-0.9,2.3-0.9c1.3,0,1.9,0.1,2.3,0.6c0.3,0.4,0.4,0.6,0.4,1.8v2.6h-0.8v-2.7c0-1.3-0.3-1.5-1.9-1.5
				c-1,0-1.4,0.1-1.7,0.4c-0.3,0.3-0.3,0.7-0.3,1.9v1.9h-0.8v-2.7c0-0.7-0.1-1-0.3-1.2c-0.3-0.3-0.7-0.4-1.7-0.4
				c-1,0-1.5,0.1-1.7,0.4c-0.2,0.3-0.3,0.7-0.3,1.9v1.9h-0.8v-4.9H180.4z"/>
			<path id="XMLID_827_" style="fill:#767A7E;" d="M190.7,73.8v-0.2c0-1,0.6-1.3,2.7-1.3c1.7,0,2.2,0.1,2.6,0.5
				c0.3,0.3,0.4,0.7,0.4,1.8v2.6h-0.8l0-0.6h0c-0.4,0.5-0.7,0.6-2.2,0.6c-1.7,0-2.2-0.1-2.6-0.3c-0.3-0.3-0.4-0.5-0.4-1.1
				c0-0.8,0.2-1.1,0.7-1.3c0.3-0.1,0.8-0.2,1.8-0.2c2,0,2.3,0.1,2.7,0.5h0.1v-0.5c0-0.5-0.1-0.7-0.2-0.9c-0.3-0.3-0.7-0.4-2-0.4
				c-1.7,0-2,0.1-2,0.8v0.1H190.7z M191.6,75.1c-0.2,0.1-0.3,0.3-0.3,0.7c0,0.4,0.1,0.5,0.4,0.7c0.2,0.1,0.7,0.1,1.9,0.1
				c1.6,0,2-0.2,2-0.8c0-0.6-0.5-0.8-2.2-0.8C192.2,75,191.8,75,191.6,75.1z"/>
			<path id="XMLID_825_" style="fill:#767A7E;" d="M198.1,72.3V73h0.1c0.3-0.6,0.9-0.8,2.5-0.8c1.4,0,2,0.1,2.4,0.5
				c0.3,0.3,0.4,0.7,0.4,1.7v2.8h-0.8v-2.4c0-0.9-0.1-1.2-0.3-1.4c-0.3-0.3-0.7-0.4-1.8-0.4c-1.2,0-1.8,0.2-2.1,0.6
				c-0.2,0.3-0.3,0.5-0.3,1.4v2.3h-0.8v-4.9H198.1z"/>
			<path id="XMLID_822_" style="fill:#767A7E;" d="M209.7,72.6c0.6,0.4,0.8,1,0.8,2.2c0,1.2-0.3,1.8-0.9,2.2c-0.4,0.2-1,0.3-2.2,0.3
				c-1.4,0-2-0.1-2.5-0.3c-0.6-0.4-0.9-1-0.9-2.2c0-1.2,0.3-1.9,0.9-2.2c0.4-0.2,0.9-0.3,2.1-0.3C208.7,72.2,209.3,72.3,209.7,72.6z
				 M204.9,74.8c0,1,0.2,1.4,0.8,1.6c0.3,0.1,0.8,0.2,1.7,0.2c1.1,0,1.6-0.1,1.9-0.3c0.3-0.3,0.4-0.7,0.4-1.5c0-1-0.2-1.4-0.7-1.6
				c-0.3-0.1-0.8-0.2-1.8-0.2C205.2,72.9,204.9,73.2,204.9,74.8z"/>
			<path id="XMLID_819_" style="fill:#767A7E;" d="M220,75.7c0,1.2-0.7,1.6-2.7,1.6c-1.7,0-2.4-0.1-2.9-0.5c-0.5-0.4-0.7-1-0.7-2
				c0-1.2,0.3-1.9,0.9-2.2c0.4-0.2,1-0.3,2.1-0.3c1.7,0,2.3,0.1,2.7,0.6c0.4,0.4,0.5,0.9,0.5,2h-5.4c0,0.6,0.1,1,0.4,1.3
				c0.3,0.3,0.8,0.4,2.3,0.4c1.1,0,1.5-0.1,1.8-0.4c0.1-0.1,0.1-0.2,0.2-0.5H220z M219.2,74.2c0-1.1-0.5-1.3-2.4-1.3
				c-1.7,0-2.1,0.3-2.2,1.3H219.2z"/>
			<path id="XMLID_817_" style="fill:#767A7E;" d="M221.4,75.5l0,0.1c0,0.9,0.2,0.9,2.4,0.9c1.3,0,1.7,0,2-0.2
				c0.1-0.1,0.2-0.3,0.2-0.5c0-0.6-0.3-0.8-1.3-0.8c-0.2,0-0.4,0-2.2,0c-1.3,0-1.7-0.4-1.7-1.3c0-0.5,0.2-0.9,0.5-1.1
				c0.3-0.2,1.1-0.3,2.5-0.3c1.6,0,2.3,0.1,2.7,0.6c0.2,0.2,0.2,0.4,0.2,1h-0.8c0-0.4,0-0.5-0.1-0.6c-0.2-0.2-0.8-0.3-1.9-0.3
				c-1.1,0-1.7,0.1-1.9,0.2c-0.1,0.1-0.2,0.3-0.2,0.5c0,0.5,0.3,0.7,1.5,0.6c0.3,0,1.7,0,2.2,0c1.1,0,1.6,0.5,1.6,1.4
				c0,0.6-0.2,1-0.6,1.2c-0.3,0.2-1.1,0.3-2.4,0.3c-1.7,0-2.3-0.1-2.7-0.4c-0.3-0.2-0.5-0.5-0.5-1.1v-0.3H221.4z"/>
			<path id="XMLID_815_" style="fill:#767A7E;" d="M230.9,72.3V73h0.1c0.3-0.6,0.9-0.8,2.5-0.8c1.4,0,2,0.1,2.4,0.5
				c0.3,0.3,0.4,0.7,0.4,1.7v2.8h-0.8v-2.4c0-0.9-0.1-1.2-0.3-1.4c-0.3-0.3-0.7-0.4-1.8-0.4c-1.2,0-1.8,0.2-2.1,0.6
				c-0.2,0.3-0.3,0.5-0.3,1.4v2.3h-0.8v-4.9H230.9z"/>
			<path id="XMLID_813_" style="fill:#767A7E;" d="M237.7,72.3v2.5c0,0.9,0.1,1.2,0.4,1.5c0.3,0.2,0.7,0.3,1.6,0.3
				c1.2,0,1.8-0.2,2.1-0.6c0.2-0.2,0.3-0.6,0.3-1.3v-2.4h0.8v4.9h-0.8v-0.7h0c-0.4,0.6-0.9,0.8-2.4,0.8c-1.2,0-1.8-0.1-2.2-0.5
				c-0.3-0.3-0.5-0.8-0.5-1.8v-2.7H237.7z"/>
			<path id="XMLID_810_" style="fill:#767A7E;" d="M249.8,75.7c0,1.2-0.7,1.6-2.7,1.6c-1.7,0-2.4-0.1-2.9-0.5c-0.5-0.4-0.7-1-0.7-2
				c0-1.2,0.3-1.9,0.9-2.2c0.4-0.2,1-0.3,2.1-0.3c1.7,0,2.3,0.1,2.7,0.6c0.4,0.4,0.5,0.9,0.5,2h-5.4c0,0.6,0.1,1,0.4,1.3
				c0.3,0.3,0.8,0.4,2.3,0.4c1.1,0,1.5-0.1,1.8-0.4c0.1-0.1,0.1-0.2,0.2-0.5H249.8z M249,74.2c0-1.1-0.5-1.3-2.4-1.3
				c-1.7,0-2.1,0.3-2.2,1.3H249z"/>
			<path id="XMLID_808_" style="fill:#767A7E;" d="M251.2,75.5l0,0.1c0,0.9,0.2,0.9,2.4,0.9c1.3,0,1.7,0,2-0.2
				c0.1-0.1,0.2-0.3,0.2-0.5c0-0.6-0.3-0.8-1.3-0.8c-0.2,0-0.4,0-2.2,0c-1.3,0-1.7-0.4-1.7-1.3c0-0.5,0.2-0.9,0.5-1.1
				c0.3-0.2,1.1-0.3,2.5-0.3c1.6,0,2.3,0.1,2.7,0.6c0.2,0.2,0.2,0.4,0.2,1h-0.8c0-0.4,0-0.5-0.1-0.6c-0.2-0.2-0.8-0.3-1.9-0.3
				c-1.1,0-1.7,0.1-1.9,0.2c-0.1,0.1-0.2,0.3-0.2,0.5c0,0.5,0.3,0.7,1.5,0.6c0.3,0,1.7,0,2.2,0c1.1,0,1.6,0.5,1.6,1.4
				c0,0.6-0.2,1-0.6,1.2c-0.3,0.2-1.1,0.3-2.4,0.3c-1.7,0-2.3-0.1-2.7-0.4c-0.3-0.2-0.5-0.5-0.5-1.1v-0.3H251.2z"/>
			<path id="XMLID_806_" style="fill:#767A7E;" d="M258.9,71.1v1.2h3.4V73h-3.4v2.1c0,0.9,0,1,0.2,1.2c0.2,0.2,0.5,0.3,1.3,0.3
				c0.7,0,0.9-0.1,1.1-0.3c0.1-0.2,0.1-0.4,0.1-1V75h0.8v0.3c0,0.8-0.1,1.1-0.3,1.4c-0.3,0.4-0.8,0.6-1.8,0.6c-1,0-1.6-0.2-1.9-0.5
				c-0.2-0.3-0.3-0.6-0.3-1.4V73h-1.2v-0.7h1.2v-1.2H258.9z"/>
			<path id="XMLID_804_" style="fill:#767A7E;" d="M263.7,72.3v0.7h0.1c0.1-0.2,0.3-0.4,0.6-0.5c0.3-0.1,0.7-0.2,1.6-0.2
				c1,0,1.3,0.1,1.7,0.4c0.3,0.3,0.5,0.7,0.5,1.4v0.5h-0.8v-0.3c0-1-0.3-1.2-1.5-1.2c-1.9,0-2.2,0.3-2.2,2v2.3h-0.8v-4.9H263.7z"/>
			<path id="XMLID_801_" style="fill:#767A7E;" d="M274.2,72.6c0.6,0.4,0.8,1,0.8,2.2c0,1.2-0.3,1.8-0.9,2.2c-0.4,0.2-1,0.3-2.2,0.3
				c-1.4,0-2-0.1-2.5-0.3c-0.6-0.4-0.9-1-0.9-2.2c0-1.2,0.3-1.9,0.9-2.2c0.4-0.2,0.9-0.3,2.1-0.3C273.2,72.2,273.8,72.3,274.2,72.6z
				 M269.4,74.8c0,1,0.2,1.4,0.8,1.6c0.3,0.1,0.8,0.2,1.7,0.2c1.1,0,1.6-0.1,1.9-0.3c0.3-0.3,0.4-0.7,0.4-1.5c0-1-0.2-1.4-0.7-1.6
				c-0.3-0.1-0.8-0.2-1.8-0.2C269.8,72.9,269.4,73.2,269.4,74.8z"/>
			<path id="XMLID_799_" style="fill:#767A7E;" d="M279.2,72.3v0.6c0.5-0.6,0.8-0.7,2-0.7c1.6,0,2.1,0.2,2.5,0.9
				c0.3-0.6,0.9-0.9,2.3-0.9c1.3,0,1.9,0.1,2.3,0.6c0.3,0.4,0.4,0.6,0.4,1.8v2.6h-0.8v-2.7c0-1.3-0.3-1.5-1.9-1.5
				c-1,0-1.4,0.1-1.7,0.4c-0.3,0.3-0.3,0.7-0.3,1.9v1.9h-0.8v-2.7c0-0.7-0.1-1-0.3-1.2c-0.3-0.3-0.7-0.4-1.7-0.4
				c-1,0-1.5,0.1-1.7,0.4c-0.2,0.3-0.3,0.7-0.3,1.9v1.9h-0.8v-4.9H279.2z"/>
			<path id="XMLID_796_" style="fill:#767A7E;" d="M295.6,75.7c0,1.2-0.7,1.6-2.7,1.6c-1.7,0-2.4-0.1-2.9-0.5c-0.5-0.4-0.7-1-0.7-2
				c0-1.2,0.3-1.9,0.9-2.2c0.4-0.2,1-0.3,2.1-0.3c1.7,0,2.3,0.1,2.7,0.6c0.4,0.4,0.5,0.9,0.5,2h-5.4c0,0.6,0.1,1,0.4,1.3
				c0.3,0.3,0.8,0.4,2.3,0.4c1.1,0,1.5-0.1,1.8-0.4c0.1-0.1,0.1-0.2,0.2-0.5H295.6z M294.8,74.2c0-1.1-0.5-1.3-2.4-1.3
				c-1.7,0-2.1,0.3-2.2,1.3H294.8z"/>
			<path id="XMLID_793_" style="fill:#767A7E;" d="M297.4,72.3v4.8c0,0.9,0,1.1-0.3,1.4c-0.2,0.3-0.5,0.4-1.3,0.4h-0.1v-0.7
				c0.6,0,0.7,0,0.8-0.2c0.1-0.1,0.1-0.2,0.1-0.8v-4.9H297.4z M297.4,70.1V71h-0.8v-0.9H297.4z"/>
			<path id="XMLID_790_" style="fill:#767A7E;" d="M303.8,72.6c0.6,0.4,0.8,1,0.8,2.2c0,1.2-0.3,1.8-0.9,2.2c-0.4,0.2-1,0.3-2.2,0.3
				c-1.4,0-2-0.1-2.5-0.3c-0.6-0.4-0.9-1-0.9-2.2c0-1.2,0.3-1.9,0.9-2.2c0.4-0.2,0.9-0.3,2.1-0.3C302.8,72.2,303.4,72.3,303.8,72.6z
				 M299,74.8c0,1,0.2,1.4,0.8,1.6c0.3,0.1,0.8,0.2,1.7,0.2c1.1,0,1.6-0.1,1.9-0.3c0.3-0.3,0.4-0.7,0.4-1.5c0-1-0.2-1.4-0.7-1.6
				c-0.3-0.1-0.8-0.2-1.8-0.2C299.4,72.9,299,73.2,299,74.8z"/>
			<path id="XMLID_788_" style="fill:#767A7E;" d="M306.1,72.3v0.7h0.1c0.1-0.2,0.3-0.4,0.6-0.5c0.3-0.1,0.7-0.2,1.6-0.2
				c1,0,1.3,0.1,1.7,0.4c0.3,0.3,0.5,0.7,0.5,1.4v0.5h-0.8v-0.3c0-1-0.3-1.2-1.5-1.2c-1.9,0-2.2,0.3-2.2,2v2.3h-0.8v-4.9H306.1z"/>
			<path id="XMLID_786_" style="fill:#767A7E;" d="M314.4,72.3v0.7h0.1c0.1-0.2,0.3-0.4,0.6-0.5c0.3-0.1,0.7-0.2,1.6-0.2
				c1,0,1.3,0.1,1.7,0.4c0.3,0.3,0.5,0.7,0.5,1.4v0.5h-0.8v-0.3c0-1-0.3-1.2-1.5-1.2c-1.9,0-2.2,0.3-2.2,2v2.3h-0.8v-4.9H314.4z"/>
			<path id="XMLID_783_" style="fill:#767A7E;" d="M325.6,75.7c0,1.2-0.7,1.6-2.7,1.6c-1.7,0-2.4-0.1-2.9-0.5c-0.5-0.4-0.7-1-0.7-2
				c0-1.2,0.3-1.9,0.9-2.2c0.4-0.2,1-0.3,2.1-0.3c1.7,0,2.3,0.1,2.7,0.6c0.4,0.4,0.5,0.9,0.5,2h-5.4c0,0.6,0.1,1,0.4,1.3
				c0.3,0.3,0.8,0.4,2.3,0.4c1.1,0,1.5-0.1,1.8-0.4c0.1-0.1,0.1-0.2,0.2-0.5H325.6z M324.8,74.2c0-1.1-0.5-1.3-2.4-1.3
				c-1.7,0-2.1,0.3-2.2,1.3H324.8z"/>
			<path id="XMLID_781_" style="fill:#767A7E;" d="M332.4,75.4c0,0.7-0.1,1-0.4,1.3c-0.4,0.4-0.9,0.5-2.2,0.5
				c-1.7,0-2.4-0.1-2.8-0.5c-0.5-0.4-0.7-1-0.7-2c0-1.2,0.3-1.9,0.9-2.2c0.4-0.2,1-0.3,2.2-0.3c1.6,0,2.2,0.1,2.6,0.5
				c0.3,0.3,0.4,0.6,0.4,1.3h-0.8c0-0.9-0.4-1.1-2.2-1.1c-1.9,0-2.2,0.3-2.2,1.9c0,0.9,0.2,1.3,0.6,1.5c0.3,0.1,0.9,0.2,1.9,0.2
				c1.6,0,1.9-0.2,2-1.1H332.4z"/>
			<path id="XMLID_779_" style="fill:#767A7E;" d="M333.8,72.3v2.5c0,0.9,0.1,1.2,0.4,1.5c0.3,0.2,0.7,0.3,1.6,0.3
				c1.2,0,1.8-0.2,2.1-0.6c0.2-0.2,0.3-0.6,0.3-1.3v-2.4h0.8v4.9h-0.8v-0.7h0c-0.4,0.6-0.9,0.8-2.4,0.8c-1.2,0-1.8-0.1-2.2-0.5
				c-0.3-0.3-0.5-0.8-0.5-1.8v-2.7H333.8z"/>
			<path id="XMLID_777_" style="fill:#767A7E;" d="M340.5,72.3v0.7h0.1c0.1-0.2,0.3-0.4,0.6-0.5c0.3-0.1,0.7-0.2,1.6-0.2
				c1,0,1.3,0.1,1.7,0.4c0.3,0.3,0.5,0.7,0.5,1.4v0.5h-0.8v-0.3c0-1-0.3-1.2-1.5-1.2c-1.9,0-2.2,0.3-2.2,2v2.3h-0.8v-4.9H340.5z"/>
			<path id="XMLID_775_" style="fill:#767A7E;" d="M346.2,75.5l0,0.1c0,0.9,0.2,0.9,2.4,0.9c1.3,0,1.7,0,2-0.2
				c0.1-0.1,0.2-0.3,0.2-0.5c0-0.6-0.3-0.8-1.3-0.8c-0.2,0-0.4,0-2.2,0c-1.3,0-1.7-0.4-1.7-1.3c0-0.5,0.2-0.9,0.5-1.1
				c0.3-0.2,1.1-0.3,2.5-0.3c1.6,0,2.3,0.1,2.7,0.6c0.2,0.2,0.2,0.4,0.2,1h-0.8c0-0.4,0-0.5-0.1-0.6c-0.2-0.2-0.8-0.3-1.9-0.3
				c-1.1,0-1.7,0.1-1.9,0.2c-0.1,0.1-0.2,0.3-0.2,0.5c0,0.5,0.3,0.7,1.5,0.6c0.3,0,1.7,0,2.2,0c1.1,0,1.6,0.5,1.6,1.4
				c0,0.6-0.2,1-0.6,1.2c-0.3,0.2-1.1,0.3-2.4,0.3c-1.7,0-2.3-0.1-2.7-0.4c-0.3-0.2-0.5-0.5-0.5-1.1v-0.3H346.2z"/>
			<path id="XMLID_772_" style="fill:#767A7E;" d="M357.7,72.6c0.6,0.4,0.8,1,0.8,2.2c0,1.2-0.3,1.8-0.9,2.2c-0.4,0.2-1,0.3-2.2,0.3
				c-1.4,0-2-0.1-2.5-0.3c-0.6-0.4-0.9-1-0.9-2.2c0-1.2,0.3-1.9,0.9-2.2c0.4-0.2,0.9-0.3,2.1-0.3C356.7,72.2,357.3,72.3,357.7,72.6z
				 M353,74.8c0,1,0.2,1.4,0.8,1.6c0.3,0.1,0.8,0.2,1.7,0.2c1.1,0,1.6-0.1,1.9-0.3c0.3-0.3,0.4-0.7,0.4-1.5c0-1-0.2-1.4-0.7-1.6
				c-0.3-0.1-0.8-0.2-1.8-0.2C353.3,72.9,353,73.2,353,74.8z"/>
		</g>
	</g>
</g>
</svg>
